<?xml version="1.0" encoding="UTF-8"?>
<svg id="Layer_1" xmlns="http://www.w3.org/2000/svg" viewBox="0 0 85.04 85.04">
  <defs>
    <style>
      .cls-1 {
        fill: #fff;
      }

      .cls-2 {
        fill: #231f20;
      }
    </style>
  </defs>
  <polygon class="cls-1" points="79.34 63.78 79.34 21.26 42.52 0 5.7 21.26 5.7 63.78 42.52 85.04 79.34 63.78"/>
  <path class="cls-2" d="M11.26,24.47v36.09l29.69,17.14v-43h-12.5v6.25h6.25v25.93l-17.2-9.93v-28.87s10.17-5.87,17.2-9.93v13.42h6.25V7.33L11.26,24.47Z"/>
  <polygon class="cls-2" points="44.08 7.33 44.08 11.26 44.08 14.55 44.08 44.08 44.08 50.33 50.33 50.33 51.2 50.33 56.58 50.33 56.58 44.08 50.33 44.08 50.33 18.16 67.52 28.08 67.52 56.95 50.33 66.88 50.33 53.46 44.08 53.46 44.08 70.49 44.08 73.78 44.08 77.71 73.78 60.56 73.78 24.47 44.08 7.33"/>
</svg>